<?xml version="1.0" encoding="UTF-8" standalone="no"?>
<!DOCTYPE svg PUBLIC "-//W3C//DTD SVG 1.1//EN" "http://www.w3.org/Graphics/SVG/1.1/DTD/svg11.dtd">
<svg width="100%" height="100%" viewBox="0 0 246 243" version="1.1" xmlns="http://www.w3.org/2000/svg" xmlns:xlink="http://www.w3.org/1999/xlink" xml:space="preserve" xmlns:serif="http://www.serif.com/" style="fill-rule:evenodd;clip-rule:evenodd;stroke-linejoin:round;stroke-miterlimit:2;">
    <g transform="matrix(1,0,0,1,-333.154,-252.337)">
        <g transform="matrix(1,0,0,1,5,5)">
            <path d="M415.929,484.768L385.513,489.41L399.232,442.761L338.118,418.093L333.154,326.852L403.006,263.462L512.191,252.337L560.217,293.022L573.758,368.84L533.38,422.386L494.125,429.518L502.917,471.491L469.364,476.612L461.47,442.443L453.581,479.021L428.895,482.789L426.162,444.948L415.929,484.768ZM431.402,396.512L430.132,371.991L408.693,342.381L363.744,334.695L365.351,382.854C390.819,405.167 406.393,403.273 431.402,396.512ZM451.102,386.729C475.433,395.626 505.437,383.517 532.739,363.489L521.085,342.22L488.895,341.661L466.631,370.874L451.102,386.729Z"/>
        </g>
        <path d="M415.929,484.768L385.513,489.41L399.232,442.761L338.118,418.093L333.154,326.852L403.006,263.462L512.191,252.337L560.217,293.022L573.758,368.84L533.38,422.386L494.125,429.518L502.917,471.491L469.364,476.612L461.47,442.443L453.581,479.021L428.895,482.789L426.162,444.948L415.929,484.768ZM446.54,400.589L448.877,415.546L458.995,410.686L446.54,400.589ZM431.402,396.512L430.132,371.991L408.693,342.381L363.744,334.695L365.351,382.854C390.819,405.167 406.393,403.273 431.402,396.512ZM451.102,386.729C475.433,395.626 505.437,383.517 532.739,363.489L521.085,342.22L488.895,341.661L466.631,370.874L451.102,386.729ZM437.606,415.546L438.99,400.589L429.817,410.63L437.606,415.546Z" style="fill:rgb(238,242,248);"/>
        <path d="M337.526,407.225L333.154,326.852L403.006,263.462L477.116,255.911L416.189,267.585L338.154,328.683L338.154,407.642L337.526,407.225Z" style="fill:white;"/>
    </g>
</svg>
